<svg width="26" height="26" viewBox="0 0 26 26" fill="none" xmlns="http://www.w3.org/2000/svg">
<path d="M23 13C23 18.5229 18.5229 23 13 23C7.47715 23 3 18.5229 3 13C3 7.47715 7.47715 3 13 3C18.5229 3 23 7.47715 23 13ZM13 25.5C19.9035 25.5 25.5 19.9035 25.5 13C25.5 6.09644 19.9035 0.5 13 0.5C6.09644 0.5 0.5 6.09644 0.5 13C0.5 19.9035 6.09644 25.5 13 25.5ZM13.448 9.72808C12.2321 10.2338 9.80225 11.2805 6.15825 12.8681C5.56651 13.1034 5.25655 13.3336 5.22833 13.5586C5.18064 13.9391 5.65701 14.0889 6.30573 14.2929C6.39396 14.3206 6.4854 14.3494 6.57913 14.3799C7.21735 14.5873 8.07589 14.83 8.5222 14.8396C8.92705 14.8484 9.37891 14.6815 9.87778 14.3389C13.2825 12.0406 15.04 10.879 15.1504 10.854C15.2283 10.8363 15.3361 10.8141 15.4091 10.879C15.4823 10.944 15.475 11.067 15.4674 11.1C15.4201 11.3013 13.5501 13.0398 12.5824 13.9394C12.2939 14.2076 12.0126 14.4816 11.7291 14.7549C11.1363 15.3264 10.6916 15.755 11.7538 16.455C12.8305 17.1646 13.9154 17.8728 14.9655 18.6214C15.4834 18.9906 15.9488 19.3224 16.5235 19.2695C16.8576 19.2388 17.2026 18.9246 17.3778 17.9879C17.7919 15.7741 18.6059 10.9776 18.794 9.00104C18.8105 8.82788 18.7898 8.60625 18.7731 8.50896C18.7565 8.41168 18.7216 8.27305 18.5953 8.17044C18.4454 8.04891 18.2143 8.02329 18.1109 8.02511C17.6406 8.0334 16.9194 8.28421 13.448 9.72808Z" fill="#AE7933"/>
</svg>
