<svg width="26" height="26" viewBox="0 0 26 26" fill="none" xmlns="http://www.w3.org/2000/svg">
<path d="M7.06701 21.118L7.97292 21.6463C9.48636 22.5288 11.2064 23 13.0012 23C18.5241 23 23.0012 18.5229 23.0012 13C23.0012 7.47715 18.5241 3 13.0012 3C7.47837 3 3.00122 7.47715 3.00122 13C3.00122 14.7954 3.47276 16.516 4.35582 18.0298L4.8838 18.9348L4.06693 21.9368L7.06701 21.118ZM0.506446 25.5L2.1964 19.2894C1.11867 17.442 0.501221 15.2931 0.501221 13C0.501221 6.09644 6.09766 0.5 13.0012 0.5C19.9047 0.5 25.5012 6.09644 25.5012 13C25.5012 19.9035 19.9047 25.5 13.0012 25.5C10.7089 25.5 8.56063 24.883 6.71357 23.8059L0.506446 25.5ZM8.4904 7.13541C8.65775 7.12365 8.82566 7.12185 8.99323 7.13003C9.06093 7.13448 9.12831 7.1423 9.19573 7.15009C9.39481 7.17308 9.61372 7.29431 9.68732 7.46118C10.0602 8.3067 10.422 9.15706 10.7727 10.012C10.8501 10.2008 10.8035 10.4454 10.6562 10.6821C10.5815 10.8035 10.4641 10.9738 10.3281 11.1479C10.1867 11.3288 9.88248 11.6614 9.88248 11.6614C9.88248 11.6614 9.75922 11.8091 9.80568 11.993C9.82378 12.0625 9.88151 12.1638 9.93385 12.2489C9.96283 12.296 9.98975 12.3381 10.0072 12.3673C10.3271 12.9014 10.7571 13.4429 11.2824 13.952C11.4329 14.0979 11.5789 14.2468 11.7359 14.385C12.3212 14.9011 12.9835 15.3229 13.6987 15.6353L13.7051 15.6381C13.8107 15.6836 13.865 15.7085 14.0196 15.7741C14.0976 15.8071 14.1774 15.8356 14.2592 15.8573C14.2889 15.865 14.3192 15.8694 14.3497 15.8715C14.5519 15.8836 14.6687 15.754 14.7186 15.6944C15.623 14.5988 15.7057 14.5273 15.712 14.5278V14.5298C15.8309 14.4045 16.0177 14.361 16.1845 14.3713C16.2606 14.3759 16.3364 14.3905 16.4056 14.4221C17.0704 14.7254 18.1572 15.1984 18.1572 15.1984L18.8841 15.5251C19.0059 15.5839 19.117 15.7223 19.1224 15.8568C19.1256 15.9404 19.1346 16.0754 19.1047 16.3224C19.0656 16.6458 18.9672 17.0351 18.8695 17.2391C18.8007 17.3823 18.7117 17.5093 18.6082 17.6168C18.4679 17.7625 18.3636 17.851 18.1949 17.9768C18.0921 18.0533 18.0389 18.0893 18.0389 18.0893C17.8652 18.1988 17.7674 18.2535 17.5605 18.3636C17.2387 18.535 16.8832 18.6335 16.5191 18.6523C16.287 18.6641 16.0555 18.6809 15.8236 18.6684C15.8134 18.6678 15.1134 18.5603 15.1134 18.5603C13.336 18.0928 11.6922 17.217 10.3129 16.0025C10.0309 15.7543 9.76937 15.4856 9.50242 15.2199C8.3911 14.1135 7.54977 12.9205 7.03961 11.792C6.78803 11.2355 6.62873 10.6395 6.62622 10.0262C6.62161 9.26756 6.86998 8.529 7.33211 7.92733C7.42321 7.80871 7.50967 7.68569 7.65886 7.54483C7.81685 7.39564 7.9174 7.31555 8.02571 7.26014C8.17008 7.18628 8.32866 7.14678 8.4904 7.13541Z" fill="#AE7933"/>
</svg>
