<svg width="53" height="48" viewBox="0 0 53 48" fill="none" xmlns="http://www.w3.org/2000/svg">
<path d="M18.9236 28.3929L17.9342 28.2474C17.8956 28.5098 17.9629 28.7768 18.1211 28.9896C18.2794 29.2024 18.5157 29.3437 18.7781 29.3822L18.9236 28.3929ZM24.3651 29.1931L24.2196 30.1825C24.482 30.2211 24.7489 30.1539 24.9618 29.9956L24.3651 29.1931ZM40.7496 17.01L41.3463 17.8124L40.7496 17.01ZM36.1084 10.7682L35.5117 9.96576V9.96576L36.1084 10.7682ZM19.7238 22.9514L19.1271 22.149C18.9143 22.3072 18.7731 22.5435 18.7345 22.8059L19.7238 22.9514ZM35.3504 11.3318C35.0209 10.8886 34.3944 10.7965 33.9512 11.1261C33.5081 11.4556 33.4159 12.082 33.7455 12.5252L35.3504 11.3318ZM38.3867 18.7669C38.7162 19.2101 39.3427 19.3023 39.7859 18.9727C40.229 18.6432 40.3212 18.0167 39.9916 17.5736L38.3867 18.7669ZM19.6819 13.3853C20.2342 13.3853 20.6819 12.9376 20.6819 12.3853C20.6819 11.833 20.2342 11.3853 19.6819 11.3853V13.3853ZM10.6819 12.3853V11.3853H9.68188V12.3853H10.6819ZM10.6819 37.3853H9.68188V38.3853H10.6819V37.3853ZM35.6819 37.3853V38.3853H36.6819V37.3853H35.6819ZM36.6819 32.3853C36.6819 31.833 36.2342 31.3853 35.6819 31.3853C35.1296 31.3853 34.6819 31.833 34.6819 32.3853H36.6819ZM18.7781 29.3822L24.2196 30.1825L24.5106 28.2038L19.0691 27.4035L18.7781 29.3822ZM24.9618 29.9956L41.3463 17.8124L40.1529 16.2075L23.7684 28.3907L24.9618 29.9956ZM41.3463 17.8124C41.8615 17.4293 42.2962 16.9485 42.6256 16.3974L40.9089 15.3713C40.7142 15.697 40.4574 15.9811 40.1529 16.2075L41.3463 17.8124ZM42.6256 16.3974C42.955 15.8463 43.1726 15.2357 43.266 14.6005L41.2873 14.3095C41.2321 14.6848 41.1035 15.0456 40.9089 15.3713L42.6256 16.3974ZM43.266 14.6005C43.3595 13.9652 43.3269 13.3179 43.1701 12.6952L41.2306 13.1836C41.3233 13.5515 41.3425 13.9341 41.2873 14.3095L43.266 14.6005ZM43.1701 12.6952C43.0133 12.0726 42.7354 11.487 42.3523 10.9718L40.7474 12.1652C40.9738 12.4696 41.138 12.8157 41.2306 13.1836L43.1701 12.6952ZM42.3523 10.9718C41.9692 10.4566 41.4884 10.0218 40.9373 9.69246L39.9112 11.4092C40.2369 11.6038 40.521 11.8607 40.7474 12.1652L42.3523 10.9718ZM40.9373 9.69246C40.3862 9.36307 39.7756 9.14545 39.1404 9.05203L38.8494 11.0307C39.2247 11.0859 39.5855 11.2145 39.9112 11.4092L40.9373 9.69246ZM39.1404 9.05203C38.5051 8.95861 37.8577 8.99122 37.2351 9.148L37.7235 11.0875C38.0914 10.9948 38.474 10.9755 38.8494 11.0307L39.1404 9.05203ZM37.2351 9.148C36.6125 9.30478 36.0269 9.58265 35.5117 9.96576L36.7051 11.5707C37.0095 11.3443 37.3556 11.1801 37.7235 11.0875L37.2351 9.148ZM35.5117 9.96576L19.1271 22.149L20.3205 23.7539L36.7051 11.5707L35.5117 9.96576ZM18.7345 22.8059L17.9342 28.2474L19.9129 28.5384L20.7132 23.0969L18.7345 22.8059ZM33.7455 12.5252L38.3867 18.7669L39.9916 17.5736L35.3504 11.3318L33.7455 12.5252ZM19.6819 11.3853H10.6819V13.3853H19.6819V11.3853ZM9.68188 12.3853V37.3853H11.6819V12.3853H9.68188ZM10.6819 38.3853H35.6819V36.3853H10.6819V38.3853ZM36.6819 37.3853V32.3853H34.6819V37.3853H36.6819Z" fill="#AE7933"/>
</svg>
