<svg width="47" height="45" viewBox="0 0 47 45" fill="none" xmlns="http://www.w3.org/2000/svg">
<path d="M15.8333 13.125C15.8333 15.1141 16.641 17.0218 18.0788 18.4283C19.5166 19.8348 21.4667 20.625 23.5 20.625C25.5333 20.625 27.4833 19.8348 28.9211 18.4283C30.3589 17.0218 31.1666 15.1141 31.1666 13.125C31.1666 11.1359 30.3589 9.22822 28.9211 7.8217C27.4833 6.41518 25.5333 5.625 23.5 5.625C21.4667 5.625 19.5166 6.41518 18.0788 7.8217C16.641 9.22822 15.8333 11.1359 15.8333 13.125Z" stroke="#AE7933" stroke-width="2" stroke-linecap="round" stroke-linejoin="round"/>
<path d="M12 39.375V35.625C12 33.6359 12.8077 31.7282 14.2455 30.3217C15.6833 28.9152 17.6333 28.125 19.6667 28.125H22.5417" stroke="#AE7933" stroke-width="2" stroke-linecap="round" stroke-linejoin="round"/>
<path d="M27.0061 32.6525C27.0061 34.1443 27.6119 35.5751 28.6902 36.6299C29.7686 37.6848 31.2311 38.2775 32.7561 38.2775C34.2811 38.2775 35.7436 37.6848 36.822 36.6299C37.9003 35.5751 38.5061 34.1443 38.5061 32.6525C38.5061 31.1606 37.9003 29.7299 36.822 28.675C35.7436 27.6201 34.2811 27.0275 32.7561 27.0275C31.2311 27.0275 29.7686 27.6201 28.6902 28.675C27.6119 29.7299 27.0061 31.1606 27.0061 32.6525Z" stroke="#AE7933" stroke-width="2" stroke-linecap="round" stroke-linejoin="round"/>
<path d="M36.9728 36.7774L40.4228 40.1524" stroke="#AE7933" stroke-width="2" stroke-linecap="round" stroke-linejoin="round"/>
</svg>
