<svg width="184" height="31" viewBox="0 0 184 31" fill="none" xmlns="http://www.w3.org/2000/svg">
<path d="M108.739 14.8931C108.739 16.3166 108.509 17.5594 108.048 18.6215C107.586 19.6727 106.943 20.5542 106.117 21.2659C105.302 21.9667 104.331 22.4923 103.205 22.8427C102.079 23.1931 100.856 23.3683 99.5369 23.3683H92.2006V22.892C92.7154 22.892 93.123 22.8592 93.4233 22.7935C93.7343 22.7278 93.9703 22.6073 94.1312 22.4321C94.2921 22.246 94.3993 21.9941 94.4529 21.6766C94.5066 21.3481 94.5334 20.9265 94.5334 20.4119V9.5386C94.5334 9.013 94.5119 8.58596 94.469 8.25746C94.4261 7.92896 94.3242 7.67711 94.1634 7.50192C94.0025 7.31577 93.7665 7.18984 93.4555 7.12414C93.1444 7.05844 92.7261 7.0256 92.2006 7.0256V6.58212H98.8773C100.261 6.58212 101.553 6.71352 102.755 6.97632C103.956 7.23912 104.996 7.69354 105.876 8.33958C106.766 8.97468 107.463 9.8233 107.967 10.8854C108.482 11.9476 108.739 13.2835 108.739 14.8931ZM106.004 14.9917C106.004 13.9514 105.86 12.9823 105.57 12.0845C105.291 11.1756 104.868 10.3817 104.299 9.70285C103.741 9.02395 103.05 8.49288 102.224 8.10964C101.409 7.71544 100.459 7.51834 99.376 7.51834C98.947 7.51834 98.5233 7.55119 98.105 7.61689C97.6974 7.68259 97.2845 7.77566 96.8662 7.89611V22.1529C97.2523 22.2624 97.6706 22.3555 98.1211 22.4321C98.5716 22.4978 99.0113 22.5307 99.4404 22.5307C100.513 22.5307 101.457 22.3336 102.272 21.9394C103.087 21.5342 103.768 20.9922 104.315 20.3133C104.873 19.6235 105.291 18.8241 105.57 17.9153C105.86 16.9955 106.004 16.0209 106.004 14.9917Z" fill="#C1C1C1"/>
<path d="M124.084 17.9875C123.986 18.7562 123.77 19.4964 123.435 20.2082C123.101 20.9057 122.675 21.5249 122.159 22.0658C121.644 22.6068 121.044 23.0409 120.361 23.3683C119.692 23.6957 118.959 23.8594 118.165 23.8594C117.133 23.8594 116.22 23.6388 115.425 23.1975C114.644 22.7562 113.989 22.1726 113.459 21.4466C112.929 20.7206 112.532 19.895 112.267 18.9698C112.002 18.0445 111.869 17.105 111.869 16.1512C111.869 15.0836 112.002 14.073 112.267 13.1192C112.546 12.1512 112.957 11.3043 113.501 10.5783C114.058 9.85231 114.756 9.2758 115.592 8.84875C116.443 8.40747 117.433 8.18683 118.562 8.18683C119.427 8.18683 120.2 8.3363 120.884 8.63523C121.567 8.93416 122.146 9.35409 122.62 9.89502C123.094 10.4217 123.456 11.0552 123.707 11.7954C123.958 12.5214 124.084 13.3185 124.084 14.1868H114.107C114.107 14.984 114.212 15.7954 114.421 16.621C114.63 17.4466 114.951 18.2011 115.383 18.8843C115.815 19.5534 116.359 20.1085 117.014 20.5498C117.684 20.9769 118.471 21.1904 119.378 21.1904C119.936 21.1904 120.431 21.105 120.863 20.9342C121.309 20.7491 121.699 20.5 122.034 20.1868C122.383 19.8594 122.682 19.4822 122.933 19.0552C123.198 18.6139 123.421 18.1441 123.603 17.6459L124.084 17.9875ZM120.779 13.2687C120.779 12.7705 120.716 12.2865 120.591 11.8167C120.479 11.347 120.291 10.9342 120.026 10.5783C119.775 10.2082 119.454 9.90925 119.064 9.68149C118.674 9.45374 118.207 9.33986 117.663 9.33986C117.119 9.33986 116.638 9.45374 116.22 9.68149C115.801 9.89502 115.439 10.1868 115.132 10.5569C114.839 10.9128 114.602 11.3327 114.421 11.8167C114.254 12.2865 114.149 12.7705 114.107 13.2687H120.779Z" fill="#C1C1C1"/>
<path d="M137.75 19.653C137.75 20.2936 137.604 20.8701 137.311 21.3826C137.018 21.895 136.642 22.3363 136.182 22.7064C135.722 23.0765 135.199 23.3612 134.613 23.5605C134.041 23.7598 133.47 23.8594 132.898 23.8594C132.563 23.8594 132.215 23.8025 131.852 23.6886C131.504 23.589 131.162 23.4751 130.827 23.347C130.493 23.2189 130.172 23.105 129.865 23.0053C129.573 22.8915 129.301 22.8345 129.05 22.8345C128.994 22.8345 128.931 22.8701 128.861 22.9413C128.806 22.9982 128.75 23.0694 128.694 23.1548C128.652 23.226 128.61 23.3043 128.569 23.3897C128.541 23.4751 128.513 23.5391 128.485 23.5819H127.941V18.3292H128.485C128.597 18.9128 128.771 19.4751 129.008 20.016C129.245 20.5569 129.545 21.0409 129.907 21.468C130.284 21.8808 130.716 22.2153 131.204 22.4715C131.706 22.7135 132.271 22.8345 132.898 22.8345C133.219 22.8345 133.525 22.7918 133.818 22.7064C134.125 22.6068 134.39 22.4644 134.613 22.2794C134.85 22.0943 135.038 21.8665 135.178 21.5961C135.317 21.3256 135.387 21.0125 135.387 20.6566C135.387 19.9733 135.199 19.4039 134.822 18.9484C134.46 18.4786 134 18.0658 133.442 17.71C132.884 17.3541 132.285 17.0196 131.643 16.7064C131.002 16.379 130.402 16.016 129.844 15.6174C129.287 15.2046 128.82 14.7278 128.443 14.1868C128.081 13.6317 127.899 12.9484 127.899 12.137C127.899 11.4537 128.032 10.8701 128.297 10.3861C128.562 9.8879 128.91 9.47509 129.343 9.14769C129.775 8.82028 130.27 8.57829 130.827 8.42171C131.399 8.26512 131.978 8.18683 132.563 8.18683C132.842 8.18683 133.114 8.2153 133.379 8.27224C133.644 8.32918 133.909 8.40036 134.174 8.48576C134.439 8.55694 134.697 8.621 134.948 8.67794C135.213 8.73487 135.478 8.76334 135.742 8.76334C135.91 8.76334 136.042 8.70641 136.14 8.59253C136.251 8.47865 136.342 8.34342 136.412 8.18683H136.976V13.226H136.412C136.3 12.6993 136.14 12.1939 135.931 11.71C135.736 11.2117 135.485 10.7705 135.178 10.3861C134.871 10.0018 134.495 9.69573 134.048 9.46797C133.616 9.22598 133.107 9.10498 132.522 9.10498C132.215 9.10498 131.894 9.13345 131.56 9.19039C131.239 9.24733 130.939 9.34698 130.66 9.48932C130.395 9.63167 130.172 9.83096 129.991 10.0872C129.824 10.3434 129.74 10.6779 129.74 11.0907C129.74 11.8025 129.935 12.3861 130.326 12.8416C130.73 13.2829 131.225 13.6744 131.81 14.016C132.41 14.3434 133.051 14.6566 133.735 14.9555C134.432 15.2544 135.073 15.6032 135.659 16.0018C136.258 16.3861 136.753 16.8701 137.144 17.4537C137.548 18.0231 137.75 18.7562 137.75 19.653Z" fill="#C1C1C1"/>
<path d="M146.523 3.59609C146.523 4.0516 146.37 4.44306 146.063 4.77046C145.756 5.09786 145.38 5.26157 144.933 5.26157C144.487 5.26157 144.104 5.10498 143.783 4.79181C143.476 4.47865 143.323 4.08007 143.323 3.59609C143.323 3.14057 143.476 2.76335 143.783 2.46441C144.104 2.15125 144.487 1.99466 144.933 1.99466C145.366 1.99466 145.735 2.15125 146.042 2.46441C146.363 2.77758 146.523 3.1548 146.523 3.59609ZM141.378 23.3683V22.7491C141.852 22.7491 142.235 22.7135 142.528 22.6423C142.821 22.5712 143.044 22.4431 143.197 22.258C143.365 22.073 143.476 21.831 143.532 21.532C143.588 21.2189 143.616 20.8274 143.616 20.3577V12.4786C143.616 12.2936 143.602 12.0801 143.574 11.8381C143.56 11.5819 143.518 11.3399 143.448 11.1121C143.379 10.8843 143.267 10.6922 143.114 10.5356C142.96 10.379 142.758 10.3007 142.507 10.3007C142.326 10.3007 142.138 10.3292 141.943 10.3861C141.761 10.4288 141.573 10.4858 141.378 10.5569L141.169 9.98043L145.54 8.18683H146.23V20.3577C146.23 20.8274 146.258 21.2189 146.314 21.532C146.37 21.831 146.474 22.073 146.627 22.258C146.795 22.4431 147.018 22.5712 147.297 22.6423C147.59 22.7135 147.973 22.7491 148.447 22.7491V23.3683H141.378Z" fill="#C1C1C1"/>
<path d="M166.004 9.93772C166.004 10.2509 165.892 10.4644 165.669 10.5783C165.46 10.6922 165.202 10.7562 164.895 10.7705C164.603 10.7847 164.289 10.7776 163.954 10.7491C163.634 10.7064 163.362 10.6851 163.139 10.6851C163.445 11.0979 163.661 11.5676 163.787 12.0943C163.926 12.6068 163.996 13.1121 163.996 13.6103C163.996 14.4359 163.836 15.1619 163.515 15.7883C163.208 16.4004 162.79 16.9199 162.26 17.347C161.73 17.7598 161.124 18.073 160.441 18.2865C159.757 18.5 159.046 18.6068 158.307 18.6068C157.945 18.6068 157.575 18.5854 157.199 18.5427C156.836 18.4858 156.474 18.4004 156.111 18.2865C155.832 18.5142 155.56 18.7776 155.295 19.0765C155.045 19.3754 154.919 19.71 154.919 20.0801C154.919 20.4075 155.072 20.6423 155.379 20.7847C155.7 20.927 156.111 21.0267 156.613 21.0836C157.129 21.1406 157.715 21.169 158.37 21.169C159.025 21.169 159.695 21.1833 160.378 21.2117C161.061 21.2402 161.73 21.3043 162.386 21.4039C163.041 21.5036 163.62 21.6815 164.122 21.9377C164.637 22.1797 165.049 22.5214 165.356 22.9626C165.676 23.4039 165.837 23.9875 165.837 24.7135C165.837 25.3683 165.711 25.9662 165.46 26.5071C165.209 27.048 164.875 27.532 164.456 27.9591C164.038 28.4004 163.55 28.7776 162.992 29.0907C162.448 29.4039 161.877 29.6673 161.277 29.8808C160.678 30.0943 160.071 30.2509 159.458 30.3505C158.858 30.4502 158.286 30.5 157.743 30.5C157.478 30.5 157.129 30.4715 156.697 30.4146C156.278 30.3719 155.832 30.2936 155.358 30.1797C154.898 30.0801 154.431 29.9448 153.957 29.774C153.483 29.6174 153.058 29.4253 152.681 29.1975C152.305 28.9697 151.998 28.7064 151.761 28.4075C151.524 28.1228 151.405 27.7954 151.405 27.4253C151.405 27.1263 151.517 26.7705 151.74 26.3577C151.977 25.9591 152.249 25.5605 152.556 25.1619C152.876 24.7776 153.197 24.4075 153.518 24.0516C153.852 23.71 154.117 23.4395 154.312 23.2402C154.173 23.1548 154.02 23.048 153.852 22.9199C153.685 22.7918 153.525 22.6495 153.371 22.4929C153.218 22.3363 153.085 22.1726 152.974 22.0018C152.876 21.8167 152.828 21.6317 152.828 21.4466C152.828 21.1477 152.918 20.8345 153.099 20.5071C153.281 20.1655 153.504 19.8381 153.769 19.5249C154.034 19.2117 154.306 18.9199 154.584 18.6495C154.877 18.379 155.128 18.1584 155.337 17.9875C154.919 17.7883 154.536 17.532 154.187 17.2189C153.852 16.9057 153.567 16.5569 153.329 16.1726C153.092 15.774 152.911 15.3541 152.786 14.9128C152.66 14.4573 152.597 13.9947 152.597 13.5249C152.597 12.6993 152.751 11.9591 153.058 11.3043C153.378 10.6352 153.804 10.073 154.333 9.61744C154.863 9.16192 155.47 8.81317 156.153 8.57117C156.85 8.31495 157.582 8.18683 158.349 8.18683C158.809 8.18683 159.255 8.25089 159.688 8.379C160.134 8.49288 160.573 8.621 161.005 8.76334C161.438 8.90569 161.87 9.04093 162.302 9.16904C162.734 9.28292 163.173 9.33986 163.62 9.33986C163.899 9.33986 164.177 9.32562 164.456 9.29715C164.735 9.25445 165.014 9.2331 165.293 9.2331C165.572 9.2331 165.76 9.26157 165.858 9.31851C165.955 9.37544 166.004 9.58185 166.004 9.93772ZM161.214 14.0587C161.214 13.5605 161.166 13.0196 161.068 12.4359C160.984 11.8381 160.824 11.2829 160.587 10.7705C160.35 10.258 160.029 9.83096 159.625 9.48932C159.221 9.14769 158.712 8.97687 158.098 8.97687C157.568 8.97687 157.122 9.09786 156.76 9.33986C156.411 9.56762 156.132 9.86655 155.923 10.2367C155.714 10.5925 155.56 10.9982 155.463 11.4537C155.379 11.9093 155.337 12.3648 155.337 12.8203C155.337 13.3327 155.379 13.8808 155.463 14.4644C155.56 15.048 155.728 15.589 155.965 16.0872C156.216 16.5854 156.543 16.9982 156.948 17.3256C157.366 17.653 157.889 17.8167 158.516 17.8167C159.06 17.8167 159.506 17.71 159.855 17.4964C160.204 17.2829 160.475 16.9982 160.671 16.6423C160.88 16.2865 161.019 15.8879 161.089 15.4466C161.173 14.9911 161.214 14.5285 161.214 14.0587ZM164.686 25.3327C164.686 25.1192 164.638 24.9342 164.54 24.7776C164.456 24.621 164.338 24.4858 164.184 24.3719C164.045 24.2722 163.878 24.1868 163.682 24.1157C163.501 24.0445 163.32 23.9875 163.139 23.9448C162.734 23.8452 162.183 23.7669 161.486 23.71C160.789 23.653 160.05 23.6032 159.269 23.5605C158.502 23.532 157.75 23.5036 157.011 23.4751C156.272 23.4466 155.658 23.411 155.17 23.3683C155.031 23.5391 154.87 23.7313 154.689 23.9448C154.522 24.1726 154.361 24.4075 154.208 24.6495C154.055 24.9057 153.929 25.1619 153.831 25.4181C153.734 25.6886 153.685 25.952 153.685 26.2082C153.685 26.5356 153.79 26.8203 153.999 27.0623C154.208 27.3043 154.473 27.5107 154.794 27.6815C155.128 27.8523 155.498 27.9947 155.902 28.1085C156.32 28.2224 156.732 28.3078 157.136 28.3648C157.54 28.4359 157.924 28.4786 158.286 28.4929C158.649 28.5214 158.942 28.5356 159.165 28.5356C159.639 28.5356 160.19 28.4858 160.817 28.3861C161.458 28.3007 162.065 28.137 162.637 27.895C163.208 27.653 163.689 27.3256 164.08 26.9128C164.484 26.5 164.686 25.9733 164.686 25.3327Z" fill="#C1C1C1"/>
<path d="M176.763 23.3683V22.7491C177.307 22.7491 177.732 22.7064 178.039 22.621C178.36 22.5356 178.597 22.3932 178.75 22.1939C178.918 21.9804 179.022 21.7028 179.064 21.3612C179.106 21.0053 179.127 20.5641 179.127 20.0374V14.016C179.127 13.6032 179.106 13.169 179.064 12.7135C179.036 12.258 178.946 11.8452 178.792 11.4751C178.639 11.0907 178.409 10.7776 178.102 10.5356C177.795 10.2936 177.377 10.1726 176.847 10.1726C176.471 10.1726 176.108 10.2367 175.76 10.3648C175.411 10.4786 175.076 10.6352 174.756 10.8345C174.449 11.0196 174.156 11.2402 173.877 11.4964C173.612 11.7527 173.361 12.0089 173.124 12.2651V20.0374C173.124 20.5498 173.145 20.984 173.187 21.3399C173.229 21.6815 173.326 21.9591 173.48 22.1726C173.633 22.3861 173.863 22.5356 174.17 22.621C174.491 22.7064 174.923 22.7491 175.467 22.7491V23.3683H168.272V22.7491C168.802 22.7491 169.213 22.6993 169.506 22.5996C169.799 22.4858 170.015 22.3221 170.154 22.1085C170.308 21.8808 170.398 21.5961 170.426 21.2544C170.454 20.9128 170.468 20.5071 170.468 20.0374V14.5285C170.468 14.3007 170.475 13.952 170.489 13.4822C170.503 13.0125 170.482 12.5427 170.426 12.073C170.384 11.6032 170.28 11.1904 170.112 10.8345C169.959 10.4786 169.708 10.3007 169.36 10.3007C169.178 10.3007 168.997 10.3292 168.816 10.3861C168.634 10.4288 168.453 10.4858 168.272 10.5569L168.063 9.98043L172.476 8.18683H173.124V11.3043C173.417 10.9342 173.738 10.5641 174.086 10.1939C174.449 9.82384 174.832 9.48932 175.237 9.19039C175.641 8.89146 176.073 8.64947 176.533 8.46441C176.993 8.27936 177.468 8.18683 177.956 8.18683C178.736 8.18683 179.371 8.35053 179.859 8.67794C180.361 9.00534 180.751 9.4395 181.03 9.98043C181.309 10.5071 181.497 11.0979 181.595 11.7527C181.692 12.4075 181.741 13.0694 181.741 13.7384V20.0374C181.741 20.5071 181.762 20.9128 181.804 21.2544C181.846 21.5961 181.936 21.8808 182.076 22.1085C182.229 22.3221 182.459 22.4858 182.766 22.5996C183.073 22.6993 183.484 22.7491 184 22.7491V23.3683H176.763Z" fill="#C1C1C1"/>
<path d="M19.2418 18.2438C18.2797 20.0089 17.0666 21.3968 15.6026 22.4075C14.1525 23.4039 12.4235 23.9021 10.4157 23.9021C8.82611 23.9021 7.38995 23.6174 6.10717 23.048C4.82439 22.4786 3.72984 21.6957 2.82352 20.6993C1.91721 19.7028 1.22004 18.5285 0.732024 17.1762C0.244008 15.8238 0 14.3577 0 12.7776C0 11.1548 0.257951 9.63879 0.773854 8.22954C1.3037 6.80605 2.04269 5.56762 2.99084 4.51423C3.95293 3.44662 5.09628 2.60676 6.42089 1.99466C7.75945 1.38256 9.24442 1.07651 10.8758 1.07651C11.4196 1.07651 11.9215 1.11922 12.3817 1.20463C12.8557 1.2758 13.3089 1.37544 13.7411 1.50356C14.1873 1.63167 14.6265 1.78826 15.0588 1.97331C15.491 2.14413 15.9442 2.3363 16.4182 2.54982C16.6274 2.54982 16.8087 2.5 16.962 2.40036C17.1154 2.30071 17.2409 2.17972 17.3385 2.03737C17.4361 1.89502 17.5128 1.73843 17.5686 1.56762C17.6383 1.38256 17.6941 1.21886 17.7359 1.07651H18.3006L18.7607 8.46441H18.3006C18.0357 7.55338 17.6941 6.72064 17.2758 5.96619C16.8714 5.19751 16.3764 4.53559 15.7908 3.98043C15.2191 3.42527 14.5498 2.9911 13.783 2.67794C13.0161 2.36477 12.1377 2.20818 11.1477 2.20818C10.1716 2.20818 9.30716 2.35765 8.55422 2.65658C7.81522 2.94128 7.15989 3.33986 6.58821 3.85231C6.03048 4.36477 5.55641 4.96263 5.166 5.64591C4.78953 6.32918 4.48277 7.0694 4.24574 7.86655C4.02264 8.64947 3.85533 9.46797 3.74378 10.3221C3.64618 11.1619 3.59737 11.9947 3.59737 12.8203C3.59737 14.1157 3.75075 15.347 4.0575 16.5142C4.36426 17.6815 4.83833 18.7064 5.47972 19.589C6.13506 20.4715 6.96468 21.169 7.9686 21.6815C8.98646 22.1939 10.1995 22.4502 11.6078 22.4502C12.5002 22.4502 13.281 22.3434 13.9503 22.1299C14.6335 21.9164 15.247 21.6174 15.7908 21.2331C16.3485 20.8345 16.8644 20.3577 17.3385 19.8025C17.8126 19.2331 18.2866 18.5996 18.7607 17.9021L19.2418 18.2438Z" fill="#C1C1C1"/>
<path d="M33.4941 23.8594H32.762V20.6993C32.4413 21.0552 32.0997 21.4181 31.7372 21.7883C31.3747 22.1584 30.9843 22.5 30.566 22.8132C30.1616 23.1121 29.7294 23.3612 29.2692 23.5605C28.8231 23.7598 28.349 23.8594 27.847 23.8594C27.0662 23.8594 26.4318 23.6815 25.9438 23.3256C25.4557 22.9698 25.0723 22.5142 24.7934 21.9591C24.5285 21.4039 24.3472 20.7847 24.2496 20.1014C24.166 19.4181 24.1242 18.7562 24.1242 18.1157V11.5178C24.1242 11.0338 24.0823 10.6423 23.9987 10.3434C23.915 10.0445 23.7756 9.81673 23.5804 9.66014C23.3852 9.48932 23.1272 9.37544 22.8065 9.31851C22.4998 9.26157 22.1233 9.2331 21.6771 9.2331V8.63523H26.7804V18.4786C26.7804 18.9057 26.8082 19.3185 26.864 19.7171C26.9337 20.1157 27.0523 20.4715 27.2196 20.7847C27.4008 21.0979 27.6448 21.3541 27.9516 21.5534C28.2723 21.7384 28.6766 21.831 29.1647 21.831C29.5132 21.831 29.8549 21.7669 30.1895 21.6388C30.5241 21.5107 30.8448 21.347 31.1516 21.1477C31.4583 20.9484 31.7442 20.7278 32.0091 20.4858C32.288 20.2295 32.5389 19.9804 32.762 19.7384V11.3897C32.762 10.9342 32.7132 10.5712 32.6156 10.3007C32.532 10.016 32.3925 9.79537 32.1973 9.63879C32.0161 9.48221 31.7721 9.37544 31.4653 9.31851C31.1725 9.26157 30.8239 9.2331 30.4196 9.2331V8.63523H35.3764V19.4822C35.3764 19.6388 35.3834 19.8452 35.3973 20.1014C35.4113 20.3577 35.4461 20.6068 35.5019 20.8488C35.5716 21.0765 35.6692 21.2758 35.7947 21.4466C35.9341 21.6174 36.1224 21.7028 36.3594 21.7028C36.7917 21.7028 37.2239 21.6174 37.6561 21.4466L37.8653 22.0231L33.4941 23.8594Z" fill="#C1C1C1"/>
<path d="M40.3006 23.3683V22.7491C40.8026 22.7491 41.193 22.6922 41.4719 22.5783C41.7647 22.4502 41.9808 22.2722 42.1202 22.0445C42.2736 21.8167 42.3642 21.5391 42.3921 21.2117C42.434 20.8701 42.4549 20.4786 42.4549 20.0374V6.30783C42.4549 6.0516 42.4618 5.71708 42.4758 5.30427C42.5037 4.89146 42.4897 4.48576 42.434 4.08719C42.3782 3.67438 42.2666 3.32562 42.0993 3.04093C41.932 2.74199 41.6601 2.59253 41.2836 2.59253C41.1163 2.59253 40.956 2.61388 40.8026 2.65658C40.6492 2.68505 40.4819 2.73488 40.3006 2.80605L40.0496 2.25089L44.379 0.5H45.0692V20.0374C45.0692 20.5356 45.0902 20.9555 45.132 21.2972C45.1878 21.6388 45.2923 21.9164 45.4457 22.1299C45.613 22.3434 45.8501 22.5 46.1568 22.5996C46.4775 22.6993 46.8958 22.7491 47.4117 22.7491V23.3683H40.3006Z" fill="#C1C1C1"/>
<path d="M58.3804 20.6566C58.2688 21.0552 58.1015 21.4466 57.8784 21.831C57.6553 22.2153 57.3834 22.5569 57.0627 22.8559C56.756 23.1548 56.4074 23.3968 56.017 23.5819C55.6405 23.7669 55.2292 23.8594 54.783 23.8594C54.2253 23.8594 53.7582 23.7456 53.3817 23.5178C53.0192 23.3043 52.7263 23.0196 52.5033 22.6637C52.2802 22.2936 52.1268 21.8737 52.0431 21.4039C51.9595 20.9342 51.9176 20.4502 51.9176 19.952V9.7242H49.6379V9.2331C50.1817 9.01957 50.6767 8.71352 51.1229 8.31495C51.583 7.91637 51.9943 7.46797 52.3568 6.96975C52.7333 6.4573 53.061 5.92349 53.3399 5.36833C53.6327 4.81317 53.8836 4.27936 54.0928 3.7669H54.5738V8.63523H57.9621V9.7242H54.5738V19.5676C54.5738 19.8096 54.5878 20.073 54.6157 20.3577C54.6575 20.6423 54.7272 20.9128 54.8248 21.169C54.9224 21.411 55.0619 21.6174 55.2431 21.7883C55.4383 21.9448 55.6823 22.0231 55.9751 22.0231C56.4492 22.0231 56.8257 21.9021 57.1045 21.6601C57.3834 21.4039 57.6065 21.0694 57.7738 20.6566H58.3804Z" fill="#C1C1C1"/>
<path d="M73.0719 17.9875C72.9743 18.7562 72.7581 19.4964 72.4235 20.2082C72.0889 20.9057 71.6636 21.5249 71.1477 22.0658C70.6318 22.6068 70.0322 23.0409 69.349 23.3683C68.6797 23.6957 67.9477 23.8594 67.1529 23.8594C66.1211 23.8594 65.2078 23.6388 64.4131 23.1975C63.6322 22.7562 62.9769 22.1726 62.4471 21.4466C61.9172 20.7206 61.5198 19.895 61.2549 18.9698C60.99 18.0445 60.8575 17.105 60.8575 16.1512C60.8575 15.0836 60.99 14.073 61.2549 13.1192C61.5338 12.1512 61.9451 11.3043 62.4889 10.5783C63.0466 9.85231 63.7438 9.2758 64.5804 8.84875C65.4309 8.40747 66.4209 8.18683 67.5503 8.18683C68.4148 8.18683 69.1887 8.3363 69.8719 8.63523C70.5551 8.93416 71.1337 9.35409 71.6078 9.89502C72.0819 10.4217 72.4444 11.0552 72.6954 11.7954C72.9464 12.5214 73.0719 13.3185 73.0719 14.1868H63.0954C63.0954 14.984 63.2 15.7954 63.4092 16.621C63.6183 17.4466 63.939 18.2011 64.3712 18.8843C64.8035 19.5534 65.3473 20.1085 66.0026 20.5498C66.6719 20.9769 67.4597 21.1904 68.366 21.1904C68.9237 21.1904 69.4187 21.105 69.851 20.9342C70.2971 20.7491 70.6876 20.5 71.0222 20.1868C71.3708 19.8594 71.6706 19.4822 71.9215 19.0552C72.1865 18.6139 72.4096 18.1441 72.5908 17.6459L73.0719 17.9875ZM69.7673 13.2687C69.7673 12.7705 69.7046 12.2865 69.5791 11.8167C69.4675 11.347 69.2793 10.9342 69.0144 10.5783C68.7634 10.2082 68.4427 9.90925 68.0523 9.68149C67.6619 9.45374 67.1948 9.33986 66.651 9.33986C66.1072 9.33986 65.6261 9.45374 65.2078 9.68149C64.7895 9.89502 64.427 10.1868 64.1203 10.5569C63.8275 10.9128 63.5904 11.3327 63.4092 11.8167C63.2418 12.2865 63.1373 12.7705 63.0954 13.2687H69.7673Z" fill="#C1C1C1"/>
<path d="M74.7929 14.8931C74.7929 16.3166 75.0235 17.5594 75.4847 18.6215C75.9459 19.6727 76.5894 20.5542 77.4153 21.2659C78.2304 21.9667 79.2011 22.4923 80.3273 22.8427C81.4535 23.1931 82.6762 23.3683 83.9955 23.3683H91.3318V22.892C90.817 22.892 90.4094 22.8592 90.1091 22.7935C89.798 22.7278 89.5621 22.6073 89.4012 22.4321C89.2403 22.246 89.133 21.9941 89.0794 21.6766C89.0258 21.3481 88.999 20.9265 88.999 20.4119V9.5386C88.999 9.013 89.0204 8.58596 89.0633 8.25746C89.1062 7.92896 89.2081 7.67711 89.369 7.50192C89.5299 7.31577 89.7658 7.18984 90.0769 7.12414C90.3879 7.05844 90.8062 7.0256 91.3318 7.0256V6.58212H84.6551C83.2715 6.58212 81.979 6.71352 80.7778 6.97632C79.5765 7.23912 78.5361 7.69354 77.6566 8.33958C76.7664 8.97468 76.0692 9.8233 75.5651 10.8854C75.0503 11.9476 74.7929 13.2835 74.7929 14.8931ZM77.5279 14.9917C77.5279 13.9514 77.6727 12.9823 77.9623 12.0845C78.2412 11.1756 78.6648 10.3817 79.2333 9.70285C79.791 9.02395 80.4828 8.49288 81.3087 8.10964C82.1238 7.71544 83.0731 7.51834 84.1563 7.51834C84.5854 7.51834 85.009 7.55119 85.4273 7.61689C85.8349 7.68259 86.2478 7.77566 86.6661 7.89611V22.1529C86.28 22.2624 85.8617 22.3555 85.4112 22.4321C84.9608 22.4978 84.521 22.5307 84.092 22.5307C83.0194 22.5307 82.0756 22.3336 81.2604 21.9394C80.4453 21.5342 79.7642 20.9922 79.2172 20.3133C78.6595 19.6235 78.2412 18.8241 77.9623 17.9153C77.6727 16.9955 77.5279 16.0209 77.5279 14.9917Z" fill="#C1C1C1"/>
</svg>
