<svg width="57" height="47" viewBox="0 0 57 47" fill="none" xmlns="http://www.w3.org/2000/svg">
<path d="M24.0834 15.5209C21.1458 16.01 18.4585 17.4744 16.4553 19.6781C14.452 21.8817 13.2495 24.6959 13.0417 27.6667M32.9167 15.5209C35.8544 16.01 38.5416 17.4744 40.5449 19.6781C42.5482 21.8817 43.7507 24.6959 43.9584 27.6667M24.0834 14.4166H10.8334M10.8334 14.4166C10.8334 15.0023 10.6008 15.5641 10.1866 15.9782C9.77247 16.3924 9.21077 16.625 8.62508 16.625C8.03939 16.625 7.4777 16.3924 7.06355 15.9782C6.64941 15.5641 6.41675 15.0024 6.41675 14.4167C6.41675 13.831 6.64941 13.2693 7.06355 12.8552C7.4777 12.441 8.03939 12.2084 8.62508 12.2084C9.21077 12.2084 9.77247 12.441 10.1866 12.8552C10.6008 13.2693 10.8334 13.8309 10.8334 14.4166ZM46.1667 14.4166H32.9167M46.1667 14.4166C46.1667 15.0023 46.3993 15.5641 46.8135 15.9782C47.2276 16.3924 47.7893 16.625 48.375 16.625C48.9607 16.625 49.5224 16.3924 49.9366 15.9782C50.3507 15.5641 50.5834 15.0024 50.5834 14.4167C50.5834 13.831 50.3507 13.2693 49.9366 12.8552C49.5224 12.441 48.9607 12.2084 48.375 12.2084C47.7893 12.2084 47.2276 12.441 46.8135 12.8552C46.3993 13.2693 46.1667 13.8309 46.1667 14.4166ZM8.62506 29.875C8.62506 29.2893 8.85772 28.7276 9.27187 28.3134C9.68601 27.8993 10.2477 27.6666 10.8334 27.6666H15.2501C15.8357 27.6666 16.3974 27.8993 16.8116 28.3134C17.2257 28.7276 17.4584 29.2893 17.4584 29.875V34.2916C17.4584 34.8773 17.2257 35.439 16.8116 35.8532C16.3974 36.2673 15.8357 36.5 15.2501 36.5H10.8334C10.2477 36.5 9.68601 36.2673 9.27187 35.8532C8.85772 35.439 8.62506 34.8773 8.62506 34.2916V29.875ZM39.5417 29.875C39.5417 29.2893 39.7744 28.7276 40.1886 28.3134C40.6027 27.8993 41.1644 27.6666 41.7501 27.6666H46.1667C46.7524 27.6666 47.3141 27.8993 47.7283 28.3134C48.1424 28.7276 48.3751 29.2893 48.3751 29.875V34.2916C48.3751 34.8773 48.1424 35.439 47.7283 35.8532C47.3141 36.2673 46.7524 36.5 46.1667 36.5H41.7501C41.1644 36.5 40.6027 36.2673 40.1886 35.8532C39.7744 35.439 39.5417 34.8773 39.5417 34.2916V29.875ZM24.0834 12.2083C24.0834 11.6226 24.316 11.0609 24.7302 10.6468C25.1443 10.2327 25.706 10 26.2917 10H30.7084C31.2941 10 31.8558 10.2327 32.2699 10.6468C32.684 11.0609 32.9167 11.6226 32.9167 12.2083V16.625C32.9167 17.2107 32.684 17.7724 32.2699 18.1865C31.8558 18.6007 31.2941 18.8333 30.7084 18.8333H26.2917C25.706 18.8333 25.1443 18.6007 24.7302 18.1865C24.316 17.7724 24.0834 17.2107 24.0834 16.625V12.2083Z" stroke="#AE7933" stroke-width="2" stroke-linecap="round" stroke-linejoin="round"/>
</svg>
