<svg width="28" height="19" viewBox="0 0 28 19" fill="none" xmlns="http://www.w3.org/2000/svg">
<path d="M8.375 7.75C9.75571 7.75 10.875 6.63075 10.875 5.25C10.875 3.86929 9.75571 2.75 8.375 2.75H2.75V7.75H8.375ZM9.625 10.25H2.75V15.25H9.625C11.0057 15.25 12.125 14.1307 12.125 12.75C12.125 11.3692 11.0057 10.25 9.625 10.25ZM12.204 8.46562C13.6549 9.34075 14.625 10.9321 14.625 12.75C14.625 15.5114 12.3864 17.75 9.625 17.75H0.25V0.25H8.375C11.1364 0.25 13.375 2.48857 13.375 5.25C13.375 6.47455 12.9347 7.59625 12.204 8.46562ZM18.375 1.5H25.25V3.375H18.375V1.5ZM27.75 12.125H18.375V12.4375C18.375 14.336 19.914 15.875 21.8125 15.875C23.1484 15.875 24.3062 15.113 24.8751 14H27.5422C26.8564 16.5211 24.5509 18.375 21.8125 18.375C18.5332 18.375 15.875 15.7167 15.875 12.4375V10.5625C15.875 7.28325 18.5332 4.625 21.8125 4.625C25.0917 4.625 27.75 7.28325 27.75 10.5625V12.125ZM25.1206 9.625C24.7125 8.18212 23.386 7.125 21.8125 7.125C20.239 7.125 18.9125 8.18212 18.5044 9.625H25.1206Z" fill="#AE7933"/>
</svg>
